<?xml version="1.0" encoding="UTF-8" standalone="no"?>
<!-- Generator: Adobe Illustrator 16.0.0, SVG Export Plug-In . SVG Version: 6.00 Build 0)  -->
<!DOCTYPE svg  PUBLIC '-//W3C//DTD SVG 1.1//EN'  'http://www.w3.org/Graphics/SVG/1.1/DTD/svg11.dtd'>
<svg id="Layer_1" xmlns="http://www.w3.org/2000/svg" xml:space="preserve" height="991.57px" viewBox="0 0 1079.383 991.572" width="1079.4px" version="1.1" y="0px" x="0px" xmlns:xlink="http://www.w3.org/1999/xlink" enable-background="new 0 0 1079.383 991.572">
<g fill="#fff">
	<circle cy="479.47" cx="132.74" r="3.167"/>
	<circle cy="430.31" cx="117.24" r="2.667"/>
	<circle cy="387.31" cx="104.91" r="2.333"/>
	<circle cy="334.64" cx="132.91" r="3.333"/>
	<circle cy="362.14" cx="56.743" r="2.833"/>
	<circle cy="369.31" cx="25.576" r="1.333"/>
	<circle cy="389.31" cx="13.576" r="2"/>
	<circle cy="430.81" cx="30.076" r="3.167"/>
	<circle cy="426.14" cx="41.076" r="1.5"/>
	<circle cy="398.31" cx="44.243" r="1.667"/>
	<circle cy="492.39" cx="58.16" r="1.417"/>
	<circle cy="486.14" cx="74.41" r="1.5"/>
	<circle cy="494.81" cx="11.158" r="2.417"/>
	<circle cy="538.14" cx="115.08" r="2.166"/>
	<circle cy="476.39" cx="81.659" r="3.083"/>
	<circle cy="451.47" cx="76.743" r="3.833"/>
	<circle cy="525.47" cx="42.243" r="1.167"/>
	<circle cy="563.14" cx="76.243" r="1.833"/>
	<circle cy="578.14" cx="68.076" r="1.833"/>
	<circle cy="581.56" cx="86.326" r="1.584"/>
	<circle cy="585.39" cx="112.83" r="2.25"/>
	<circle cy="599.81" cx="65.409" r="3.167"/>
	<circle cy="605.18" cx="55.701" r="2.458"/>
	<circle cy="614.81" cx="42.41" r="2.5"/>
	<circle cy="645.14" cx="71.742" r="1.833"/>
	<circle cy="648.51" cx="83.201" r="1.542"/>
	<circle cy="644.22" cx="87.243" r=".917"/>
	<circle cy="663.64" cx="107.24" r="2.667"/>
	<circle cy="677.64" cx="57.243" r="4"/>
	<circle cy="675.89" cx="72.159" r="2.25"/>
	<circle cy="671.47" cx="82.409" r="2.167"/>
	<circle cy="717.47" cx="82.409" r="2.167"/>
	<circle cy="720.06" cx="141.49" r="2.584"/>
	<circle cy="755.89" cx="71.493" r="2.917"/>
	<circle cy="782.64" cx="166.58" r="2"/>
	<circle cy="772.31" cx="197.58" r="3"/>
	<circle cy="821.64" cx="165.58" r="2.666"/>
	<circle cy="823.14" cx="154.41" r="1.5"/>
	<circle cy="803.14" cx="86.41" r="1.834"/>
	<circle cy="711.47" cx="68.075" r="1.833"/>
	<circle cy="806.81" cx="191.41" r="1.833"/>
	<circle cy="805.89" cx="246.99" r="2.75"/>
	<circle cy="832.47" cx="289.08" r="3.833"/>
	<circle cy="844.81" cx="309.41" r="3.833"/>
	<circle cy="924.97" cx="342.58" r="3"/>
	<circle cy="927.64" cx="361.58" r="2.667"/>
	<circle cy="919.47" cx="385.08" r="2.5"/>
	<circle cy="928.89" cx="383.83" r="1.25"/>
	<circle cy="918.22" cx="413.83" r="1.25"/>
	<circle cy="900.64" cx="418.08" r="3"/>
	<circle cy="922.64" cx="429.08" r="3.166"/>
	<circle cy="923.56" cx="449.33" r="4.083"/>
	<circle cy="916.89" cx="459.49" r="2.583"/>
	<circle cy="967.81" cx="453.41" r="2.167"/>
	<circle cy="981.65" cx="493.26" r="3.346"/>
	<circle cy="899.14" cx="512.41" r="1.5"/>
	<circle cy="904.97" cx="539.91" r="1.334"/>
	<circle cy="909.64" cx="622.58" r="3.333"/>
	<circle cy="911.97" cx="643.24" r="2.334"/>
	<circle cy="911.97" cx="656.58" r="2.334"/>
	<circle cy="907.31" cx="665.91" r="2.333"/>
	<circle cy="911.97" cx="677.58" r="2.334"/>
	<circle cy="895.31" cx="685.91" r="2.333"/>
	<circle cy="861.81" cx="698.41" r="3.833"/>
	<circle cy="899.14" cx="692.08" r="1.5"/>
	<circle cy="904.56" cx="699.33" r=".917"/>
	<circle cy="949.64" cx="734.91" r="3.667"/>
	<circle cy="874.97" cx="775.91" r="2.666"/>
	<circle cy="867.14" cx="768.08" r="1.5"/>
	<circle cy="657.56" cx="868.83" r="3.75"/>
	<circle cy="662.18" cx="967.2" r="4.625"/>
	<circle cy="669.31" cx="905.08" r="2.5"/>
	<circle cy="664.06" cx="924.33" r="2.75"/>
	<circle cy="689.81" cx="923.08" r="1.5"/>
	<circle cy="695.81" cx="892.08" r="2"/>
	<circle cy="758.56" cx="891.33" r="1.25"/>
	<circle cy="726.56" cx="834.83" r="1.75"/>
	<circle cy="610.31" cx="1012.6" r="3.5"/>
	<circle cy="553.49" cx="970.89" r="3.688"/>
	<circle cy="545.81" cx="972.39" r="1.5"/>
	<circle cy="541.31" cx="956.08" r="3"/>
	<circle cy="526.81" cx="1008.6" r="4"/>
	<circle cy="545.81" cx="1028.1" r="1.5"/>
	<circle cy="575.81" cx="969.2" r="2"/>
	<circle cy="515.81" cx="999.08" r="2.833"/>
	<circle cy="511.47" cx="946.41" r="1.5"/>
	<circle cy="486.97" cx="929.41" r="2.333"/>
	<circle cy="476.47" cx="954.58" r="1.5"/>
	<circle cy="491.4" cx="969.3" r="2.096"/>
	<circle cy="464.97" cx="975.91" r="1.333"/>
	<circle cy="443.14" cx="998.41" r="2.167"/>
	<circle cy="468.14" cx="1012.2" r="3.167"/>
	<circle cy="460.81" cx="1055.7" r="2.833"/>
	<circle cy="416.64" cx="1043.2" r="2"/>
	<circle cy="412.81" cx="1066.4" r="3.833"/>
	<circle cy="370.81" cx="1046.4" r="3.167"/>
	<circle cy="375.81" cx="997.74" r="3.167"/>
	<circle cy="403.56" cx="932.66" r="3.25"/>
	<circle cy="402.77" cx="971.68" r=".792"/>
	<circle cy="390.98" cx="975.91" r="1.333"/>
	<circle cy="385.48" cx="928.24" r="1.167"/>
	<circle cy="372.31" cx="937.41" r="1.5"/>
	<circle cy="335.31" cx="929.08" r="2"/>
	<circle cy="318.48" cx="957.41" r="2.833"/>
	<circle cy="360.31" cx="880.58" r="3"/>
	<circle cy="311.48" cx="1018.2" r="2.833"/>
	<circle cy="311.48" cx="1029.4" r="2.833"/>
	<circle cy="322.81" cx="1038.7" r="1.5"/>
	<circle cy="335.31" cx="1039.2" r="2"/>
	<circle cy="265.81" cx="987.08" r="2.5"/>
	<circle cy="270.48" cx="992.74" r="2.167"/>
	<circle cy="257.81" cx="919.08" r="3.167"/>
	<circle cy="261.48" cx="889.74" r="1.833"/>
	<circle cy="283.31" cx="902.91" r="2"/>
	<circle cy="300.81" cx="913.08" r="1.167"/>
	<circle cy="299.81" cx="885.74" r="2.167"/>
	<circle cy="279.64" cx="881.91" r="1.667"/>
	<circle cy="245.56" cx="958.83" r="1.417"/>
	<circle cy="228.48" cx="955.91" r="1.5"/>
	<circle cy="209.48" cx="957.41" r="1.5"/>
	<circle cy="212.81" cx="948.08" r="1.833"/>
	<circle cy="184.81" cx="942.08" r="2.167"/>
	<circle cy="195.98" cx="913.91" r="2"/>
	<circle cy="175.81" cx="777.58" r="3"/>
	<circle cy="153.72" cx="848.33" r="1.417"/>
	<circle cy="138.81" cx="837.74" r="1.167"/>
	<circle cy="153.31" cx="783.58" r="1"/>
	<circle cy="119.81" cx="734.74" r="1.167"/>
	<circle cy="74.308" cx="761.24" r="3"/>
	<circle cy="46.641" cx="788.58" r="4"/>
	<circle cy="90.808" cx="802.74" r="1.5"/>
	<circle cy="82.808" cx="712.41" r="1.833"/>
	<circle cy="92.308" cx="706.58" r="3"/>
	<circle cy="56.808" cx="706.41" r="2.833"/>
	<circle cy="62.975" cx="730.24" r="1.333"/>
	<circle cy="93.808" cx="826.08" r="1.5"/>
	<circle cy="32.308" cx="661.91" r="2.333"/>
	<circle cy="52.141" cx="561.08" r="3.833"/>
	<circle cy="46.142" cx="550.41" r="1.833"/>
	<circle cy="5.475" cx="551.91" r="1.5"/>
	<circle cy="65.975" cx="531.24" r="1.667"/>
	<circle cy="61.975" cx="455.91" r="2.333"/>
	<circle cy="79.141" cx="446.74" r="1.833"/>
	<circle cy="101.81" cx="425.74" r="2.833"/>
	<circle cy="112.98" cx="375.24" r="2.667"/>
	<circle cy="79.975" cx="375.24" r="2.667"/>
	<circle cy="43.641" cx="393.24" r="3"/>
	<circle cy="34.809" cx="358.08" r="2.5"/>
	<circle cy="4.488" cx="369.4" r="2.488"/>
	<circle cy="6.564" cx="414.65" r="2.077"/>
	<circle cy="7.058" cx="448.33" r="1.583"/>
	<circle cy="25.308" cx="324.58" r="2.333"/>
	<circle cy="37.725" cx="283.16" r="2.917"/>
	<circle cy="133.98" cx="183.58" r="3.333"/>
	<circle cy="113.64" cx="182.24" r="2"/>
	<circle cy="122.48" cx="202.08" r="1.833"/>
	<circle cy="113.64" cx="218.58" r="2"/>
	<circle cy="105.64" cx="219.58" r="1"/>
	<circle cy="49.391" cx="234.99" r="2.75"/>
	<circle cy="156.14" cx="164.08" r="1.833"/>
	<circle cy="175.81" cx="126.74" r="1.833"/>
	<circle cy="193.81" cx="102.08" r="3.5"/>
	<circle cy="188.64" cx="133.24" r="1.667"/>
	<circle cy="170.31" cx="183.24" r="1"/>
	<circle cy="151.14" cx="188.08" r="1.167"/>
	<circle cy="138.64" cx="274.58" r="1.333"/>
	<circle cy="246.64" cx="54.909" r="2"/>
	<circle cy="278.64" cx="58.242" r="3.333"/>
</g>
</svg>
