<?xml version="1.0" encoding="UTF-8" standalone="no"?>
<!-- Generator: Adobe Illustrator 16.0.0, SVG Export Plug-In . SVG Version: 6.00 Build 0)  -->
<!DOCTYPE svg  PUBLIC '-//W3C//DTD SVG 1.1//EN'  'http://www.w3.org/Graphics/SVG/1.1/DTD/svg11.dtd'>
<svg id="Layer_5" xmlns="http://www.w3.org/2000/svg" xml:space="preserve" height="1018.4px" viewBox="0 0 1034.605 1018.449" width="1034.6px" version="1.1" y="0px" x="0px" xmlns:xlink="http://www.w3.org/1999/xlink" enable-background="new 0 0 1034.605 1018.449">
<circle cy="-234.34" cx="-1442.2" r="1.343" fill="#FC5E5E"/>
<circle cy="-219.46" cx="-1465.5" r="1.343" fill="#FC5E5E"/>
<circle cy="-215.41" cx="-1452.5" r="1.343" fill="#FC5E5E"/>
<circle cy="-223.37" cx="-1408.7" r="1.343" fill="#FC5E5E"/>
<circle cy="-208.48" cx="-1431.9" r="1.343" fill="#FC5E5E"/>
<circle cy="-219.74" cx="-1350" r="1.343" fill="#FC5E5E"/>
<circle cy="-208.77" cx="-1316.5" r="1.343" fill="#FC5E5E"/>
<circle cy="-262.97" cx="-1317.8" r="1.343" fill="#FC5E5E"/>
<circle cy="-248.09" cx="-1341.1" r="1.343" fill="#FC5E5E"/>
<circle cy="-233.53" cx="-1319.2" r="1.343" fill="#FC5E5E"/>
<circle cy="-244.04" cx="-1328.1" r="1.343" fill="#FC5E5E"/>
<circle cy="-229.15" cx="-1351.4" r="1.343" fill="#FC5E5E"/>
<circle cy="-214.59" cx="-1329.5" r="1.343" fill="#FC5E5E"/>
<circle cy="-252" cx="-1284.3" r="1.343" fill="#FC5E5E"/>
<circle cy="-237.11" cx="-1307.6" r="1.343" fill="#FC5E5E"/>
<circle cy="-222.55" cx="-1285.7" r="1.343" fill="#FC5E5E"/>
<circle cy="-233.06" cx="-1294.6" r="1.343" fill="#FC5E5E"/>
<circle cy="-218.18" cx="-1317.8" r="1.343" fill="#FC5E5E"/>
<circle cy="-222.28" cx="-1231.5" r="1.343" fill="#FC5E5E"/>
<circle cy="-207.4" cx="-1254.7" r="1.343" fill="#FC5E5E"/>
<circle cy="-231.69" cx="-1258.6" r="1.343" fill="#FC5E5E"/>
<circle cy="-211.31" cx="-1198" r="1.343" fill="#FC5E5E"/>
<circle cy="-265.51" cx="-1199.3" r="1.343" fill="#FC5E5E"/>
<circle cy="-250.63" cx="-1222.6" r="1.343" fill="#FC5E5E"/>
<circle cy="-236.07" cx="-1200.7" r="1.343" fill="#FC5E5E"/>
<circle cy="-246.58" cx="-1209.6" r="1.343" fill="#FC5E5E"/>
<circle cy="-231.69" cx="-1232.8" r="1.343" fill="#FC5E5E"/>
<circle cy="-217.13" cx="-1210.9" r="1.343" fill="#FC5E5E"/>
<circle cy="-254.54" cx="-1165.8" r="1.343" fill="#FC5E5E"/>
<circle cy="-239.65" cx="-1189" r="1.343" fill="#FC5E5E"/>
<circle cy="-225.09" cx="-1167.1" r="1.343" fill="#FC5E5E"/>
<circle cy="-235.6" cx="-1176.1" r="1.343" fill="#FC5E5E"/>
<circle cy="-220.72" cx="-1199.3" r="1.343" fill="#FC5E5E"/>
<circle cy="-250.63" cx="-1103.3" r="1.343" fill="#FC5E5E"/>
<circle cy="-235.74" cx="-1126.5" r="1.343" fill="#FC5E5E"/>
<circle cy="-221.18" cx="-1104.6" r="1.343" fill="#FC5E5E"/>
<circle cy="-231.69" cx="-1113.5" r="1.343" fill="#FC5E5E"/>
<circle cy="-216.81" cx="-1136.8" r="1.343" fill="#FC5E5E"/>
<circle cy="-239.65" cx="-1069.7" r="1.343" fill="#FC5E5E"/>
<circle cy="-224.77" cx="-1093" r="1.343" fill="#FC5E5E"/>
<circle cy="-210.21" cx="-1071.1" r="1.343" fill="#FC5E5E"/>
<circle cy="-220.72" cx="-1080" r="1.343" fill="#FC5E5E"/>
<circle cy="-226.48" cx="-1031.2" r="1.343" fill="#FC5E5E"/>
<circle cy="-211.6" cx="-1054.5" r="1.343" fill="#FC5E5E"/>
<circle cy="-207.55" cx="-1041.5" r="1.343" fill="#FC5E5E"/>
<circle cy="-215.51" cx="-997.71" r="1.343" fill="#FC5E5E"/>
<circle cy="-278.97" cx="-1094.3" r="1.343" fill="#FC5E5E"/>
<circle cy="-264.41" cx="-1072.4" r="1.343" fill="#FC5E5E"/>
<circle cy="-274.92" cx="-1081.4" r="1.343" fill="#FC5E5E"/>
<circle cy="-260.04" cx="-1104.6" r="1.343" fill="#FC5E5E"/>
<circle cy="-245.48" cx="-1082.7" r="1.343" fill="#FC5E5E"/>
<circle cy="-282.88" cx="-1037.6" r="1.343" fill="#FC5E5E"/>
<circle cy="-268" cx="-1060.8" r="1.343" fill="#FC5E5E"/>
<circle cy="-253.44" cx="-1038.9" r="1.343" fill="#FC5E5E"/>
<circle cy="-263.95" cx="-1047.8" r="1.343" fill="#FC5E5E"/>
<circle cy="-249.06" cx="-1071.1" r="1.343" fill="#FC5E5E"/>
<circle cy="-234.5" cx="-1049.2" r="1.343" fill="#FC5E5E"/>
<g fill="#4B5764">
	<circle cy="279.76" cx="66.648" r="1.343"/>
	<circle cy="244.55" cx="116.78" r="1.343"/>
	<circle cy="273.99" cx="115.44" r="1.343"/>
	<circle cy="263.48" cx="106.5" r="1.343"/>
	<circle cy="278.37" cx="83.25" r="1.343"/>
	<circle cy="292.93" cx="105.15" r="1.343"/>
	<circle cy="255.52" cx="150.31" r="1.343"/>
	<circle cy="270.41" cx="127.06" r="1.343"/>
	<circle cy="284.97" cx="148.96" r="1.343"/>
	<circle cy="274.46" cx="140.02" r="1.343"/>
	<circle cy="289.34" cx="116.78" r="1.343"/>
	<circle cy="217.59" cx="109.11" r="1.343"/>
	<circle cy="111.94" cx="210.63" r="1.343"/>
	<circle cy="101.43" cx="201.69" r="1.343"/>
	<circle cy="130.88" cx="200.34" r="1.343"/>
	<circle cy="95.666" cx="250.48" r="1.343"/>
	<circle cy="110.55" cx="227.23" r="1.343"/>
	<circle cy="125.11" cx="249.13" r="1.343"/>
	<circle cy="114.6" cx="240.19" r="1.343"/>
	<circle cy="129.49" cx="216.95" r="1.343"/>
	<circle cy="144.04" cx="238.85" r="1.343"/>
	<circle cy="106.64" cx="284" r="1.343"/>
	<circle cy="121.52" cx="260.76" r="1.343"/>
	<circle cy="142.01" cx="275.26" r="1.343"/>
	<circle cy="134.99" cx="293.14" r="1.343"/>
	<circle cy="140.46" cx="250.48" r="1.343"/>
	<circle cy="159.14" cx="260.76" r="1.343"/>
	<circle cy="87.643" cx="232.53" r="1.343"/>
	<circle cy="68.982" cx="296.97" r="1.343"/>
	<circle cy="83.867" cx="273.72" r="1.343"/>
	<circle cy="59.571" cx="269.89" r="1.343"/>
	<circle cy="87.917" cx="286.69" r="1.343"/>
	<circle cy="102.8" cx="263.44" r="1.343"/>
	<circle cy="117.36" cx="285.34" r="1.343"/>
	<circle cy="79.955" cx="330.5" r="1.343"/>
	<circle cy="94.84" cx="307.25" r="1.343"/>
	<circle cy="109.4" cx="329.15" r="1.343"/>
	<circle cy="98.89" cx="320.22" r="1.343"/>
	<circle cy="142.85" cx="295.82" r="1.343"/>
	<circle cy="128.34" cx="318.87" r="1.343"/>
	<circle cy="93.125" cx="369" r="1.343"/>
	<circle cy="108.01" cx="345.76" r="1.343"/>
	<circle cy="122.57" cx="367.66" r="1.343"/>
	<circle cy="112.06" cx="358.72" r="1.343"/>
	<circle cy="126.95" cx="335.48" r="1.343"/>
	<circle cy="141.5" cx="357.38" r="1.343"/>
	<circle cy="104.1" cx="402.53" r="1.343"/>
	<circle cy="118.98" cx="379.28" r="1.343"/>
	<circle cy="133.54" cx="401.19" r="1.343"/>
	<circle cy="123.03" cx="392.25" r="1.343"/>
	<circle cy="137.92" cx="369" r="1.343"/>
	<circle cy="152.48" cx="390.91" r="1.343"/>
	<circle cy="25.75" cx="329.15" r="1.343"/>
	<circle cy="40.635" cx="305.91" r="1.343"/>
	<circle cy="55.195" cx="327.81" r="1.343"/>
	<circle cy="44.685" cx="318.87" r="1.343"/>
	<circle cy="59.57" cx="295.63" r="1.343"/>
	<circle cy="74.13" cx="317.53" r="1.343"/>
	<circle cy="36.723" cx="362.68" r="1.343"/>
	<circle cy="51.608" cx="339.44" r="1.343"/>
	<circle cy="66.168" cx="361.34" r="1.343"/>
	<circle cy="55.658" cx="352.4" r="1.343"/>
	<circle cy="70.543" cx="329.15" r="1.343"/>
	<circle cy="85.103" cx="351.06" r="1.343"/>
	<circle cy="40.635" cx="425.2" r="1.343"/>
	<circle cy="55.521" cx="401.95" r="1.343"/>
	<circle cy="70.08" cx="423.86" r="1.343"/>
	<circle cy="59.57" cx="414.92" r="1.343"/>
	<circle cy="74.456" cx="391.67" r="1.343"/>
	<circle cy="89.015" cx="413.58" r="1.343"/>
	<circle cy="51.608" cx="458.73" r="1.343"/>
	<circle cy="66.493" cx="435.48" r="1.343"/>
	<circle cy="81.053" cx="457.38" r="1.343"/>
	<circle cy="70.543" cx="448.45" r="1.343"/>
	<circle cy="85.428" cx="425.2" r="1.343"/>
	<circle cy="99.988" cx="447.1" r="1.343"/>
	<circle cy="64.779" cx="497.23" r="1.343"/>
	<circle cy="79.664" cx="473.98" r="1.343"/>
	<circle cy="94.223" cx="495.89" r="1.343"/>
	<circle cy="83.714" cx="486.95" r="1.343"/>
	<circle cy="98.599" cx="463.7" r="1.343"/>
	<circle cy="113.16" cx="485.61" r="1.343"/>
	<circle cy="75.752" cx="530.76" r="1.343"/>
	<circle cy="90.637" cx="507.51" r="1.343"/>
	<circle cy="105.2" cx="529.42" r="1.343"/>
	<circle cy="94.687" cx="520.48" r="1.343"/>
	<circle cy="109.57" cx="497.23" r="1.343"/>
	<circle cy="124.13" cx="519.14" r="1.343"/>
	<circle cy="12.288" cx="434.14" r="1.343"/>
	<circle cy="26.848" cx="456.04" r="1.343"/>
	<circle cy="16.338" cx="447.1" r="1.343"/>
	<circle cy="31.224" cx="423.86" r="1.343"/>
	<circle cy="45.783" cx="445.76" r="1.343"/>
	<circle cy="8.376" cx="490.91" r="1.343"/>
	<circle cy="23.261" cx="467.66" r="1.343"/>
	<circle cy="37.821" cx="489.57" r="1.343"/>
	<circle cy="27.312" cx="480.63" r="1.343"/>
	<circle cy="42.196" cx="457.38" r="1.343"/>
	<circle cy="56.756" cx="479.29" r="1.343"/>
	<circle cy="117.66" cx="448.05" r="1.343"/>
	<circle cy="128.63" cx="481.58" r="1.343"/>
	<circle cy="185.97" cx="282.66" r="1.343"/>
	<circle cy="210.62" cx="282.86" r="1.343"/>
	<circle cy="200.11" cx="273.92" r="1.343"/>
	<circle cy="215" cx="250.67" r="1.343"/>
	<circle cy="229.56" cx="272.58" r="1.343"/>
	<circle cy="192.15" cx="317.73" r="1.343"/>
	<circle cy="225.97" cx="284.2" r="1.343"/>
	<circle cy="137.94" cx="316.38" r="1.343"/>
	<circle cy="158.69" cx="282.86" r="1.343"/>
	<circle cy="167.39" cx="315.04" r="1.343"/>
	<circle cy="166.04" cx="304.76" r="1.343"/>
	<circle cy="180.31" cx="251.82" r="1.343"/>
	<circle cy="186.32" cx="304.76" r="1.343"/>
	<circle cy="148.92" cx="349.91" r="1.343"/>
	<circle cy="151.48" cx="327.81" r="1.343"/>
	<circle cy="182.74" cx="316.38" r="1.343"/>
	<circle cy="220.4" cx="164.33" r="1.343"/>
	<circle cy="224.77" cx="132.14" r="1.343"/>
	<circle cy="239.33" cx="154.05" r="1.343"/>
	<circle cy="201.92" cx="199.2" r="1.343"/>
	<circle cy="216.81" cx="175.95" r="1.343"/>
	<circle cy="268.78" cx="162.99" r="1.343"/>
	<circle cy="220.86" cx="188.92" r="1.343"/>
	<circle cy="235.74" cx="165.67" r="1.343"/>
	<circle cy="250.3" cx="187.58" r="1.343"/>
	<circle cy="215.1" cx="237.7" r="1.343"/>
	<circle cy="229.98" cx="214.46" r="1.343"/>
	<circle cy="244.54" cx="236.36" r="1.343"/>
	<circle cy="234.03" cx="227.42" r="1.343"/>
	<circle cy="248.92" cx="204.18" r="1.343"/>
	<circle cy="263.47" cx="226.08" r="1.343"/>
	<circle cy="255.51" cx="269.89" r="1.343"/>
	<circle cy="245" cx="260.95" r="1.343"/>
	<circle cy="259.89" cx="237.7" r="1.343"/>
	<circle cy="147.72" cx="197.86" r="1.343"/>
	<circle cy="137.94" cx="178.44" r="1.343"/>
	<circle cy="166.65" cx="187.58" r="1.343"/>
	<circle cy="196.1" cx="186.23" r="1.343"/>
	<circle cy="158.69" cx="231.38" r="1.343"/>
	<circle cy="173.58" cx="208.14" r="1.343"/>
	<circle cy="188.14" cx="230.04" r="1.343"/>
	<circle cy="177.63" cx="221.1" r="1.343"/>
	<circle cy="192.51" cx="197.86" r="1.343"/>
	<circle cy="207.07" cx="219.76" r="1.343"/>
	<circle cy="418.68" cx="49.16" r="1.343"/>
	<circle cy="381.62" cx="44.182" r="1.343"/>
	<circle cy="371.11" cx="35.244" r="1.343"/>
	<circle cy="400.56" cx="33.901" r="1.343"/>
	<circle cy="363.15" cx="79.052" r="1.343"/>
	<circle cy="378.04" cx="55.805" r="1.343"/>
	<circle cy="392.6" cx="77.709" r="1.343"/>
	<circle cy="382.08" cx="68.771" r="1.343"/>
	<circle cy="396.97" cx="45.524" r="1.343"/>
	<circle cy="411.53" cx="67.429" r="1.343"/>
	<circle cy="376.32" cx="117.56" r="1.343"/>
	<circle cy="391.21" cx="94.311" r="1.343"/>
	<circle cy="449.48" cx="116.22" r="1.343"/>
	<circle cy="431" cx="90.283" r="1.343"/>
	<circle cy="410.14" cx="84.03" r="1.343"/>
	<circle cy="424.7" cx="105.94" r="1.343"/>
	<circle cy="387.29" cx="151.09" r="1.343"/>
	<circle cy="399.75" cx="117.56" r="1.343"/>
	<circle cy="416.74" cx="149.74" r="1.343"/>
	<circle cy="406.23" cx="140.8" r="1.343"/>
	<circle cy="421.11" cx="117.56" r="1.343"/>
	<circle cy="435.67" cx="139.46" r="1.343"/>
	<circle cy="308.94" cx="77.709" r="1.343"/>
	<circle cy="338.39" cx="76.367" r="1.343"/>
	<circle cy="327.88" cx="67.429" r="1.343"/>
	<circle cy="357.32" cx="66.086" r="1.343"/>
	<circle cy="319.92" cx="111.24" r="1.343"/>
	<circle cy="334.8" cx="87.99" r="1.343"/>
	<circle cy="349.36" cx="109.9" r="1.343"/>
	<circle cy="338.85" cx="100.96" r="1.343"/>
	<circle cy="353.74" cx="77.709" r="1.343"/>
	<circle cy="368.3" cx="99.614" r="1.343"/>
	<circle cy="472.43" cx="36.193" r="1.343"/>
	<circle cy="501.88" cx="34.851" r="1.343"/>
	<circle cy="520.81" cx="24.57" r="1.343"/>
	<circle cy="483.41" cx="69.721" r="1.343"/>
	<circle cy="498.29" cx="46.474" r="1.343"/>
	<circle cy="512.85" cx="68.378" r="1.343"/>
	<circle cy="502.34" cx="59.44" r="1.343"/>
	<circle cy="517.22" cx="36.193" r="1.343"/>
	<circle cy="531.78" cx="58.098" r="1.343"/>
	<circle cy="496.58" cx="108.23" r="1.343"/>
	<circle cy="511.46" cx="84.98" r="1.343"/>
	<circle cy="526.02" cx="106.88" r="1.343"/>
	<circle cy="515.51" cx="97.946" r="1.343"/>
	<circle cy="530.4" cx="74.699" r="1.343"/>
	<circle cy="544.96" cx="96.604" r="1.343"/>
	<circle cy="507.55" cx="141.76" r="1.343"/>
	<circle cy="522.43" cx="118.51" r="1.343"/>
	<circle cy="536.99" cx="140.41" r="1.343"/>
	<circle cy="526.48" cx="131.47" r="1.343"/>
	<circle cy="541.37" cx="108.23" r="1.343"/>
	<circle cy="555.93" cx="130.13" r="1.343"/>
	<circle cy="429.2" cx="68.378" r="1.343"/>
	<circle cy="444.08" cx="45.131" r="1.343"/>
	<circle cy="458.64" cx="67.036" r="1.343"/>
	<circle cy="448.14" cx="58.098" r="1.343"/>
	<circle cy="463.02" cx="34.851" r="1.343"/>
	<circle cy="461.91" cx="47.817" r="1.343"/>
	<circle cy="440.17" cx="101.91" r="1.343"/>
	<circle cy="455.06" cx="78.659" r="1.343"/>
	<circle cy="469.62" cx="100.56" r="1.343"/>
	<circle cy="459.11" cx="91.625" r="1.343"/>
	<circle cy="473.99" cx="68.378" r="1.343"/>
	<circle cy="488.55" cx="90.283" r="1.343"/>
	<circle cy="527.83" cx="10.086" r="1.343"/>
	<circle cy="577.17" cx="69.334" r="1.343"/>
	<circle cy="323.55" cx="169.89" r="1.343"/>
	<circle cy="338.43" cx="146.64" r="1.343"/>
	<circle cy="352.99" cx="168.55" r="1.343"/>
	<circle cy="342.48" cx="159.61" r="1.343"/>
	<circle cy="371.93" cx="158.27" r="1.343"/>
	<circle cy="349.41" cx="180.17" r="1.343"/>
	<circle cy="368.34" cx="169.89" r="1.343"/>
	<circle cy="328.7" cx="127.45" r="1.343"/>
	<circle cy="280.32" cx="202.08" r="1.343"/>
	<circle cy="295.2" cx="178.83" r="1.343"/>
	<circle cy="299.25" cx="191.79" r="1.343"/>
	<circle cy="314.14" cx="168.55" r="1.343"/>
	<circle cy="328.7" cx="190.45" r="1.343"/>
	<circle cy="291.29" cx="235.6" r="1.343"/>
	<circle cy="442.98" cx="157.12" r="1.343"/>
	<circle cy="457.86" cx="133.87" r="1.343"/>
	<circle cy="472.42" cx="155.78" r="1.343"/>
	<circle cy="491.36" cx="145.5" r="1.343"/>
	<circle cy="468.84" cx="167.4" r="1.343"/>
	<circle cy="487.77" cx="157.12" r="1.343"/>
	<circle cy="414.63" cx="166.06" r="1.343"/>
	<circle cy="389.97" cx="169.89" r="1.343"/>
	<circle cy="418.68" cx="179.02" r="1.343"/>
	<circle cy="433.57" cx="155.78" r="1.343"/>
	<circle cy="632.52" cx="36.048" r="1.343"/>
	<circle cy="645.69" cx="74.554" r="1.343"/>
	<circle cy="675.14" cx="73.211" r="1.343"/>
	<circle cy="664.63" cx="64.273" r="1.343"/>
	<circle cy="659.71" cx="134.38" r="1.343"/>
	<circle cy="671.55" cx="84.834" r="1.343"/>
	<circle cy="686.11" cx="106.74" r="1.343"/>
	<circle cy="693.03" cx="85.031" r="1.343"/>
	<circle cy="690.49" cx="74.554" r="1.343"/>
	<circle cy="705.05" cx="96.458" r="1.343"/>
	<circle cy="578.32" cx="34.705" r="1.343"/>
	<circle cy="607.76" cx="33.362" r="1.343"/>
	<circle cy="604.18" cx="44.986" r="1.343"/>
	<circle cy="618.74" cx="66.89" r="1.343"/>
	<circle cy="608.23" cx="57.952" r="1.343"/>
	<circle cy="623.11" cx="34.705" r="1.343"/>
	<circle cy="637.67" cx="56.609" r="1.343"/>
	<circle cy="593.2" cx="130.75" r="1.343"/>
	<circle cy="622.65" cx="129.41" r="1.343"/>
	<circle cy="627.02" cx="97.222" r="1.343"/>
	<circle cy="641.58" cx="119.13" r="1.343"/>
	<circle cy="604.18" cx="164.28" r="1.343"/>
	<circle cy="619.06" cx="141.03" r="1.343"/>
	<circle cy="633.62" cx="162.94" r="1.343"/>
	<circle cy="623.11" cx="154" r="1.343"/>
	<circle cy="638" cx="130.75" r="1.343"/>
	<circle cy="652.56" cx="152.65" r="1.343"/>
	<circle cy="617.35" cx="202.78" r="1.343"/>
	<circle cy="632.23" cx="179.54" r="1.343"/>
	<circle cy="690.51" cx="201.44" r="1.343"/>
	<circle cy="672.02" cx="175.51" r="1.343"/>
	<circle cy="651.17" cx="169.26" r="1.343"/>
	<circle cy="665.73" cx="191.16" r="1.343"/>
	<circle cy="662.14" cx="202.78" r="1.343"/>
	<circle cy="549.97" cx="162.94" r="1.343"/>
	<circle cy="564.86" cx="139.69" r="1.343"/>
	<circle cy="579.42" cx="161.59" r="1.343"/>
	<circle cy="568.91" cx="152.65" r="1.343"/>
	<circle cy="583.79" cx="129.41" r="1.343"/>
	<circle cy="598.35" cx="151.31" r="1.343"/>
	<circle cy="575.83" cx="173.22" r="1.343"/>
	<circle cy="594.77" cx="162.94" r="1.343"/>
	<circle cy="713.46" cx="121.42" r="1.343"/>
	<circle cy="728.34" cx="98.172" r="1.343"/>
	<circle cy="742.9" cx="120.08" r="1.343"/>
	<circle cy="732.39" cx="111.14" r="1.343"/>
	<circle cy="747.28" cx="87.891" r="1.343"/>
	<circle cy="761.84" cx="109.8" r="1.343"/>
	<circle cy="724.43" cx="154.95" r="1.343"/>
	<circle cy="739.32" cx="131.7" r="1.343"/>
	<circle cy="753.88" cx="153.6" r="1.343"/>
	<circle cy="743.37" cx="144.67" r="1.343"/>
	<circle cy="758.25" cx="121.42" r="1.343"/>
	<circle cy="772.81" cx="143.32" r="1.343"/>
	<circle cy="737.6" cx="193.45" r="1.343"/>
	<circle cy="752.49" cx="170.21" r="1.343"/>
	<circle cy="767.05" cx="192.11" r="1.343"/>
	<circle cy="756.54" cx="183.17" r="1.343"/>
	<circle cy="771.42" cx="159.92" r="1.343"/>
	<circle cy="785.98" cx="181.83" r="1.343"/>
	<circle cy="748.58" cx="226.98" r="1.343"/>
	<circle cy="763.46" cx="203.73" r="1.343"/>
	<circle cy="778.02" cx="225.64" r="1.343"/>
	<circle cy="767.51" cx="216.7" r="1.343"/>
	<circle cy="782.4" cx="193.45" r="1.343"/>
	<circle cy="796.96" cx="215.36" r="1.343"/>
	<circle cy="670.23" cx="153.6" r="1.343"/>
	<circle cy="685.11" cx="130.36" r="1.343"/>
	<circle cy="699.67" cx="152.26" r="1.343"/>
	<circle cy="689.16" cx="143.32" r="1.343"/>
	<circle cy="704.05" cx="120.08" r="1.343"/>
	<circle cy="681.2" cx="187.13" r="1.343"/>
	<circle cy="696.08" cx="163.88" r="1.343"/>
	<circle cy="710.64" cx="185.79" r="1.343"/>
	<circle cy="796.23" cx="118.73" r="1.343"/>
	<circle cy="715.02" cx="153.6" r="1.343"/>
	<circle cy="729.58" cx="175.51" r="1.343"/>
	<circle cy="757.89" cx="61.784" r="1.343"/>
	<circle cy="768.86" cx="95.312" r="1.343"/>
	<circle cy="713.91" cx="60.441" r="1.343"/>
	<circle cy="728.24" cx="72.064" r="1.343"/>
	<circle cy="698.89" cx="219.1" r="1.343"/>
	<circle cy="717.82" cx="208.82" r="1.343"/>
	<circle cy="732.38" cx="230.72" r="1.343"/>
	<circle cy="761.84" cx="239.66" r="1.343"/>
	<circle cy="743.36" cx="264.25" r="1.343"/>
	<circle cy="761.42" cx="285.07" r="1.343"/>
	<circle cy="869.38" cx="194.23" r="1.343"/>
	<circle cy="880.35" cx="227.76" r="1.343"/>
	<circle cy="892.8" cx="194.23" r="1.343"/>
	<circle cy="802" cx="154.38" r="1.343"/>
	<circle cy="812.97" cx="187.91" r="1.343"/>
	<circle cy="842.42" cx="186.57" r="1.343"/>
	<circle cy="816.6" cx="246.56" r="1.343"/>
	<circle cy="831.49" cx="223.32" r="1.343"/>
	<circle cy="835.54" cx="236.28" r="1.343"/>
	<circle cy="850.42" cx="213.04" r="1.343"/>
	<circle cy="864.98" cx="234.94" r="1.343"/>
	<circle cy="827.58" cx="280.09" r="1.343"/>
	<circle cy="842.46" cx="256.85" r="1.343"/>
	<circle cy="857.02" cx="278.75" r="1.343"/>
	<circle cy="846.51" cx="269.81" r="1.343"/>
	<circle cy="861.4" cx="246.56" r="1.343"/>
	<circle cy="875.96" cx="268.47" r="1.343"/>
	<circle cy="840.75" cx="318.6" r="1.343"/>
	<circle cy="855.63" cx="295.35" r="1.343"/>
	<circle cy="870.19" cx="317.26" r="1.343"/>
	<circle cy="821.75" cx="204.13" r="1.343"/>
	<circle cy="874.57" cx="285.07" r="1.343"/>
	<circle cy="889.13" cx="306.98" r="1.343"/>
	<circle cy="851.72" cx="352.13" r="1.343"/>
	<circle cy="866.6" cx="328.88" r="1.343"/>
	<circle cy="887.09" cx="343.38" r="1.343"/>
	<circle cy="880.07" cx="361.26" r="1.343"/>
	<circle cy="885.54" cx="318.6" r="1.343"/>
	<circle cy="904.22" cx="328.88" r="1.343"/>
	<circle cy="773.37" cx="278.75" r="1.343"/>
	<circle cy="788.26" cx="255.5" r="1.343"/>
	<circle cy="802.82" cx="277.41" r="1.343"/>
	<circle cy="792.31" cx="268.47" r="1.343"/>
	<circle cy="807.19" cx="245.22" r="1.343"/>
	<circle cy="821.75" cx="267.13" r="1.343"/>
	<circle cy="784.34" cx="312.28" r="1.342"/>
	<circle cy="799.23" cx="289.03" r="1.343"/>
	<circle cy="813.79" cx="310.94" r="1.343"/>
	<circle cy="803.28" cx="302" r="1.343"/>
	<circle cy="818.16" cx="278.75" r="1.343"/>
	<circle cy="832.72" cx="300.65" r="1.343"/>
	<circle cy="814.06" cx="365.09" r="1.343"/>
	<circle cy="828.95" cx="341.85" r="1.343"/>
	<circle cy="804.65" cx="338.01" r="1.343"/>
	<circle cy="833" cx="354.81" r="1.343"/>
	<circle cy="847.88" cx="331.56" r="1.343"/>
	<circle cy="862.44" cx="353.47" r="1.343"/>
	<circle cy="839.92" cx="375.37" r="1.343"/>
	<circle cy="854.48" cx="397.28" r="1.343"/>
	<circle cy="843.97" cx="388.34" r="1.343"/>
	<circle cy="887.93" cx="363.95" r="1.343"/>
	<circle cy="873.42" cx="387" r="1.343"/>
	<circle cy="838.21" cx="437.13" r="1.343"/>
	<circle cy="853.09" cx="413.88" r="1.343"/>
	<circle cy="867.65" cx="435.78" r="1.343"/>
	<circle cy="857.14" cx="426.85" r="1.343"/>
	<circle cy="872.03" cx="403.6" r="1.343"/>
	<circle cy="886.58" cx="425.5" r="1.343"/>
	<circle cy="864.06" cx="447.41" r="1.343"/>
	<circle cy="878.62" cx="469.31" r="1.343"/>
	<circle cy="868.11" cx="460.37" r="1.343"/>
	<circle cy="883" cx="437.13" r="1.343"/>
	<circle cy="897.56" cx="459.03" r="1.343"/>
	<circle cy="858.24" cx="553.73" r="1.343"/>
	<circle cy="869.21" cx="587.26" r="1.343"/>
	<circle cy="905.97" cx="483.99" r="1.343"/>
	<circle cy="920.86" cx="460.74" r="1.343"/>
	<circle cy="935.42" cx="482.65" r="1.343"/>
	<circle cy="924.91" cx="473.71" r="1.343"/>
	<circle cy="939.79" cx="450.46" r="1.343"/>
	<circle cy="954.35" cx="472.37" r="1.343"/>
	<circle cy="916.94" cx="517.52" r="1.343"/>
	<circle cy="931.83" cx="494.27" r="1.343"/>
	<circle cy="946.39" cx="516.18" r="1.343"/>
	<circle cy="935.88" cx="507.24" r="1.343"/>
	<circle cy="965.32" cx="505.9" r="1.343"/>
	<circle cy="930.12" cx="556.02" r="1.343"/>
	<circle cy="945" cx="532.78" r="1.343"/>
	<circle cy="959.56" cx="554.68" r="1.343"/>
	<circle cy="949.05" cx="545.74" r="1.343"/>
	<circle cy="963.94" cx="522.5" r="1.343"/>
	<circle cy="978.49" cx="544.4" r="1.343"/>
	<circle cy="941.09" cx="589.55" r="1.343"/>
	<circle cy="955.97" cx="566.31" r="1.343"/>
	<circle cy="970.53" cx="588.21" r="1.343"/>
	<circle cy="960.02" cx="579.27" r="1.343"/>
	<circle cy="974.91" cx="556.02" r="1.343"/>
	<circle cy="989.47" cx="577.93" r="1.343"/>
	<circle cy="862.74" cx="516.18" r="1.343"/>
	<circle cy="877.62" cx="492.93" r="1.343"/>
	<circle cy="892.18" cx="514.83" r="1.343"/>
	<circle cy="881.67" cx="505.9" r="1.343"/>
	<circle cy="909.94" cx="438.47" r="1.343"/>
	<circle cy="911.12" cx="504.55" r="1.343"/>
	<circle cy="873.71" cx="549.7" r="1.343"/>
	<circle cy="888.6" cx="526.46" r="1.343"/>
	<circle cy="903.16" cx="548.36" r="1.343"/>
	<circle cy="892.65" cx="539.42" r="1.343"/>
	<circle cy="907.53" cx="516.18" r="1.343"/>
	<circle cy="922.09" cx="538.08" r="1.343"/>
	<circle cy="947.71" cx="387.19" r="1.343"/>
	<circle cy="966.67" cx="384.51" r="1.343"/>
	<circle cy="956.16" cx="375.57" r="1.343"/>
	<circle cy="985.61" cx="374.23" r="1.343"/>
	<circle cy="950.4" cx="424.36" r="1.343"/>
	<circle cy="965.28" cx="401.11" r="1.343"/>
	<circle cy="979.84" cx="423.01" r="1.343"/>
	<circle cy="969.33" cx="414.08" r="1.343"/>
	<circle cy="984.22" cx="390.83" r="1.343"/>
	<circle cy="961.37" cx="457.88" r="1.343"/>
	<circle cy="976.26" cx="434.64" r="1.343"/>
	<circle cy="990.82" cx="456.54" r="1.343"/>
	<circle cy="980.31" cx="447.6" r="1.343"/>
	<circle cy="1009.8" cx="446.26" r="1.343"/>
	<circle cy="883.02" cx="384.51" r="1.343"/>
	<circle cy="903.77" cx="350.98" r="1.343"/>
	<circle cy="912.47" cx="383.16" r="1.343"/>
	<circle cy="925.39" cx="319.94" r="1.343"/>
	<circle cy="931.4" cx="372.88" r="1.343"/>
	<circle cy="894" cx="418.04" r="1.343"/>
	<circle cy="896.56" cx="395.94" r="1.343"/>
	<circle cy="914.17" cx="412.73" r="1.343"/>
	<circle cy="947.71" cx="427.93" r="1.343"/>
	<circle cy="925.28" cx="395.94" r="1.343"/>
	<circle cy="942.38" cx="406.41" r="1.343"/>
	<circle cy="892.8" cx="265.98" r="1.343"/>
	<circle cy="907.68" cx="242.73" r="1.343"/>
	<circle cy="883.02" cx="246.56" r="1.343"/>
	<circle cy="911.74" cx="255.7" r="1.343"/>
	<circle cy="903.77" cx="299.51" r="1.343"/>
	<circle cy="918.66" cx="276.26" r="1.343"/>
	<circle cy="922.71" cx="289.23" r="1.343"/>
	<circle cy="44.332" cx="551.94" r="1.343"/>
	<circle cy="33.823" cx="543" r="1.343"/>
	<circle cy="48.708" cx="519.75" r="1.343"/>
	<circle cy="63.267" cx="541.66" r="1.343"/>
	<circle cy="40.746" cx="563.56" r="1.343"/>
	<circle cy="55.305" cx="585.46" r="1.343"/>
	<circle cy="44.796" cx="576.53" r="1.343"/>
	<circle cy="59.681" cx="553.28" r="1.343"/>
	<circle cy="39.031" cx="625.31" r="1.343"/>
	<circle cy="53.917" cx="602.07" r="1.343"/>
	<circle cy="68.476" cx="623.97" r="1.343"/>
	<circle cy="57.966" cx="615.03" r="1.343"/>
	<circle cy="72.852" cx="591.78" r="1.343"/>
	<circle cy="87.411" cx="613.69" r="1.343"/>
	<circle cy="50.004" cx="658.84" r="1.343"/>
	<circle cy="64.89" cx="635.59" r="1.343"/>
	<circle cy="79.449" cx="657.5" r="1.343"/>
	<circle cy="68.939" cx="648.56" r="1.343"/>
	<circle cy="83.825" cx="625.31" r="1.343"/>
	<circle cy="98.384" cx="647.22" r="1.343"/>
	<circle cy="27.233" cx="648.56" r="1.343"/>
	<circle cy="41.792" cx="670.46" r="1.343"/>
	<circle cy="31.283" cx="661.53" r="1.343"/>
	<circle cy="46.167" cx="638.28" r="1.343"/>
	<circle cy="60.727" cx="660.18" r="1.343"/>
	<circle cy="38.206" cx="682.09" r="1.343"/>
	<circle cy="52.765" cx="703.99" r="1.343"/>
	<circle cy="57.141" cx="671.81" r="1.343"/>
	<circle cy="51.376" cx="720.59" r="1.343"/>
	<circle cy="65.936" cx="742.5" r="1.343"/>
	<circle cy="55.426" cx="733.56" r="1.343"/>
	<circle cy="70.312" cx="710.31" r="1.343"/>
	<circle cy="79.858" cx="712.93" r="1.343"/>
	<circle cy="62.35" cx="754.12" r="1.343"/>
	<circle cy="76.909" cx="776.02" r="1.343"/>
	<circle cy="83.825" cx="754.32" r="1.343"/>
	<circle cy="81.285" cx="743.84" r="1.343"/>
	<circle cy="95.844" cx="765.74" r="1.343"/>
	<circle cy="104.26" cx="790.71" r="1.343"/>
	<circle cy="119.14" cx="767.46" r="1.343"/>
	<circle cy="133.7" cx="789.36" r="1.343"/>
	<circle cy="138.08" cx="757.18" r="1.343"/>
	<circle cy="152.64" cx="779.08" r="1.343"/>
	<circle cy="115.23" cx="824.23" r="1.343"/>
	<circle cy="130.11" cx="800.99" r="1.343"/>
	<circle cy="144.67" cx="822.89" r="1.343"/>
	<circle cy="134.16" cx="813.95" r="1.343"/>
	<circle cy="149.05" cx="790.71" r="1.343"/>
	<circle cy="163.61" cx="812.61" r="1.343"/>
	<circle cy="128.4" cx="862.74" r="1.343"/>
	<circle cy="143.28" cx="839.49" r="1.343"/>
	<circle cy="157.84" cx="861.4" r="1.343"/>
	<circle cy="147.33" cx="852.46" r="1.343"/>
	<circle cy="162.22" cx="829.21" r="1.343"/>
	<circle cy="176.78" cx="851.12" r="1.343"/>
	<circle cy="154.26" cx="873.02" r="1.343"/>
	<circle cy="173.19" cx="862.74" r="1.343"/>
	<circle cy="75.909" cx="799.64" r="1.343"/>
	<circle cy="94.844" cx="789.36" r="1.343"/>
	<circle cy="187.03" cx="788.02" r="1.343"/>
	<circle cy="105.82" cx="822.89" r="1.343"/>
	<circle cy="120.38" cx="844.79" r="1.343"/>
	<circle cy="124.54" cx="659.04" r="1.343"/>
	<circle cy="139.43" cx="635.79" r="1.343"/>
	<circle cy="153.99" cx="657.69" r="1.343"/>
	<circle cy="143.48" cx="648.76" r="1.343"/>
	<circle cy="138.89" cx="617.65" r="1.343"/>
	<circle cy="135.51" cx="692.56" r="1.343"/>
	<circle cy="150.4" cx="669.32" r="1.343"/>
	<circle cy="154.45" cx="682.28" r="1.343"/>
	<circle cy="148.68" cx="731.07" r="1.343"/>
	<circle cy="163.57" cx="707.82" r="1.343"/>
	<circle cy="178.13" cx="729.73" r="1.343"/>
	<circle cy="167.62" cx="720.79" r="1.343"/>
	<circle cy="197.06" cx="719.45" r="1.343"/>
	<circle cy="159.66" cx="764.6" r="1.343"/>
	<circle cy="174.54" cx="741.35" r="1.343"/>
	<circle cy="189.1" cx="763.26" r="1.343"/>
	<circle cy="178.59" cx="754.32" r="1.343"/>
	<circle cy="208.04" cx="752.97" r="1.343"/>
	<circle cy="81.309" cx="691.22" r="1.343"/>
	<circle cy="96.194" cx="667.98" r="1.343"/>
	<circle cy="110.75" cx="689.88" r="1.343"/>
	<circle cy="100.24" cx="680.94" r="1.343"/>
	<circle cy="115.13" cx="657.69" r="1.343"/>
	<circle cy="129.69" cx="679.6" r="1.343"/>
	<circle cy="104.71" cx="729.73" r="1.343"/>
	<circle cy="123.56" cx="707.82" r="1.343"/>
	<circle cy="119.03" cx="741.35" r="1.343"/>
	<circle cy="111.22" cx="714.47" r="1.343"/>
	<circle cy="126.1" cx="691.22" r="1.343"/>
	<circle cy="140.66" cx="713.12" r="1.343"/>
	<circle cy="134.32" cx="540.51" r="1.343"/>
	<circle cy="91.085" cx="572.7" r="1.343"/>
	<circle cy="105.97" cx="549.45" r="1.343"/>
	<circle cy="120.53" cx="571.35" r="1.343"/>
	<circle cy="110.02" cx="562.41" r="1.343"/>
	<circle cy="124.9" cx="539.17" r="1.343"/>
	<circle cy="139.46" cx="561.07" r="1.343"/>
	<circle cy="102.06" cx="606.22" r="1.343"/>
	<circle cy="117.26" cx="587.95" r="1.343"/>
	<circle cy="113.41" cx="625.51" r="1.343"/>
	<circle cy="133.96" cx="594.4" r="1.343"/>
	<circle cy="122.99" cx="559.73" r="1.343"/>
	<circle cy="236.03" cx="791.49" r="1.343"/>
	<circle cy="247" cx="825.01" r="1.343"/>
	<circle cy="276.45" cx="823.67" r="1.343"/>
	<circle cy="260.17" cx="863.52" r="1.343"/>
	<circle cy="275.06" cx="840.27" r="1.343"/>
	<circle cy="333.34" cx="862.18" r="1.343"/>
	<circle cy="293.99" cx="829.99" r="1.343"/>
	<circle cy="308.55" cx="851.9" r="1.343"/>
	<circle cy="271.14" cx="897.05" r="1.343"/>
	<circle cy="283.6" cx="863.52" r="1.343"/>
	<circle cy="300.59" cx="895.7" r="1.343"/>
	<circle cy="290.08" cx="886.77" r="1.343"/>
	<circle cy="304.96" cx="863.52" r="1.343"/>
	<circle cy="319.52" cx="885.42" r="1.343"/>
	<circle cy="192.8" cx="823.67" r="1.343"/>
	<circle cy="222.24" cx="822.33" r="1.343"/>
	<circle cy="211.73" cx="813.39" r="1.343"/>
	<circle cy="226.62" cx="790.14" r="1.343"/>
	<circle cy="241.18" cx="812.05" r="1.343"/>
	<circle cy="203.77" cx="857.2" r="1.343"/>
	<circle cy="218.65" cx="833.95" r="1.343"/>
	<circle cy="233.21" cx="855.86" r="1.343"/>
	<circle cy="222.7" cx="846.92" r="1.343"/>
	<circle cy="237.59" cx="823.67" r="1.343"/>
	<circle cy="252.15" cx="845.58" r="1.343"/>
	<circle cy="391.4" cx="887.72" r="1.343"/>
	<circle cy="420.84" cx="886.37" r="1.343"/>
	<circle cy="410.33" cx="877.44" r="1.343"/>
	<circle cy="439.78" cx="876.09" r="1.343"/>
	<circle cy="324.02" cx="847.87" r="1.343"/>
	<circle cy="353.47" cx="846.52" r="1.343"/>
	<circle cy="207.4" cx="915.85" r="1.343"/>
	<circle cy="222.28" cx="892.6" r="1.343"/>
	<circle cy="236.84" cx="914.51" r="1.343"/>
	<circle cy="226.33" cx="905.57" r="1.343"/>
	<circle cy="255.78" cx="904.23" r="1.343"/>
	<circle cy="233.26" cx="926.13" r="1.343"/>
	<circle cy="237.31" cx="939.1" r="1.343"/>
	<circle cy="252.19" cx="915.85" r="1.343"/>
	<circle cy="266.75" cx="937.76" r="1.343"/>
	<circle cy="212.55" cx="873.41" r="1.343"/>
	<circle cy="265.36" cx="954.36" r="1.343"/>
	<circle cy="212.55" cx="936.41" r="1.343"/>
	<circle cy="350.87" cx="988.08" r="1.343"/>
	<circle cy="316.19" cx="989.23" r="1.343"/>
	<circle cy="326.83" cx="903.08" r="1.343"/>
	<circle cy="341.71" cx="879.84" r="1.343"/>
	<circle cy="356.27" cx="901.74" r="1.343"/>
	<circle cy="345.76" cx="892.8" r="1.343"/>
	<circle cy="375.21" cx="891.46" r="1.343"/>
	<circle cy="337.8" cx="936.61" r="1.343"/>
	<circle cy="352.69" cx="913.36" r="1.343"/>
	<circle cy="367.25" cx="935.27" r="1.343"/>
	<circle cy="356.74" cx="926.33" r="1.343"/>
	<circle cy="371.62" cx="903.08" r="1.343"/>
	<circle cy="386.18" cx="924.99" r="1.343"/>
	<circle cy="350.97" cx="975.12" r="1.343"/>
	<circle cy="365.86" cx="951.87" r="1.343"/>
	<circle cy="380.42" cx="973.77" r="1.343"/>
	<circle cy="369.91" cx="964.84" r="1.343"/>
	<circle cy="384.79" cx="941.59" r="1.343"/>
	<circle cy="399.35" cx="963.49" r="1.343"/>
	<circle cy="376.83" cx="985.4" r="1.343"/>
	<circle cy="422.93" cx="954.36" r="1.343"/>
	<circle cy="395.76" cx="975.12" r="1.343"/>
	<circle cy="283.6" cx="935.27" r="1.343"/>
	<circle cy="298.48" cx="912.02" r="1.343"/>
	<circle cy="273.82" cx="915.85" r="1.343"/>
	<circle cy="302.53" cx="924.99" r="1.343"/>
	<circle cy="317.42" cx="901.74" r="1.343"/>
	<circle cy="331.98" cx="923.64" r="1.343"/>
	<circle cy="294.57" cx="968.79" r="1.343"/>
	<circle cy="309.46" cx="945.55" r="1.343"/>
	<circle cy="324.01" cx="967.45" r="1.343"/>
	<circle cy="313.5" cx="958.51" r="1.343"/>
	<circle cy="328.39" cx="935.27" r="1.343"/>
	<circle cy="342.95" cx="957.17" r="1.343"/>
	<circle cy="543.56" cx="880.35" r="1.343"/>
	<circle cy="477.05" cx="876.71" r="1.343"/>
	<circle cy="506.5" cx="875.37" r="1.343"/>
	<circle cy="488.03" cx="910.24" r="1.343"/>
	<circle cy="502.91" cx="886.99" r="1.343"/>
	<circle cy="517.47" cx="908.9" r="1.343"/>
	<circle cy="506.96" cx="899.96" r="1.343"/>
	<circle cy="521.85" cx="876.71" r="1.343"/>
	<circle cy="536.41" cx="898.62" r="1.343"/>
	<circle cy="501.2" cx="948.75" r="1.343"/>
	<circle cy="516.08" cx="925.5" r="1.343"/>
	<circle cy="574.36" cx="947.4" r="1.343"/>
	<circle cy="555.88" cx="921.47" r="1.343"/>
	<circle cy="535.02" cx="915.22" r="1.343"/>
	<circle cy="549.58" cx="937.12" r="1.343"/>
	<circle cy="524.62" cx="948.75" r="1.343"/>
	<circle cy="541.62" cx="980.93" r="1.343"/>
	<circle cy="531.11" cx="971.99" r="1.343"/>
	<circle cy="545.99" cx="948.75" r="1.343"/>
	<circle cy="560.55" cx="970.65" r="1.343"/>
	<circle cy="433.82" cx="908.9" r="1.343"/>
	<circle cy="448.71" cx="885.65" r="1.343"/>
	<circle cy="463.27" cx="907.55" r="1.343"/>
	<circle cy="452.76" cx="898.62" r="1.343"/>
	<circle cy="467.64" cx="875.37" r="1.343"/>
	<circle cy="482.2" cx="897.27" r="1.343"/>
	<circle cy="444.8" cx="942.42" r="1.343"/>
	<circle cy="459.68" cx="919.18" r="1.343"/>
	<circle cy="474.24" cx="941.08" r="1.343"/>
	<circle cy="463.73" cx="932.14" r="1.343"/>
	<circle cy="478.62" cx="908.9" r="1.343"/>
	<circle cy="493.18" cx="930.8" r="1.343"/>
	<circle cy="597.31" cx="867.38" r="1.343"/>
	<circle cy="626.75" cx="866.04" r="1.343"/>
	<circle cy="645.69" cx="855.76" r="1.343"/>
	<circle cy="608.28" cx="900.91" r="1.343"/>
	<circle cy="623.17" cx="877.66" r="1.343"/>
	<circle cy="637.73" cx="899.57" r="1.343"/>
	<circle cy="627.22" cx="890.63" r="1.343"/>
	<circle cy="642.1" cx="867.38" r="1.343"/>
	<circle cy="656.66" cx="889.28" r="1.343"/>
	<circle cy="621.45" cx="939.41" r="1.343"/>
	<circle cy="636.34" cx="916.17" r="1.343"/>
	<circle cy="650.9" cx="938.07" r="1.343"/>
	<circle cy="640.39" cx="929.13" r="1.343"/>
	<circle cy="655.27" cx="905.89" r="1.343"/>
	<circle cy="669.83" cx="927.79" r="1.343"/>
	<circle cy="632.43" cx="972.94" r="1.343"/>
	<circle cy="647.31" cx="949.7" r="1.343"/>
	<circle cy="661.87" cx="971.6" r="1.343"/>
	<circle cy="651.36" cx="962.66" r="1.343"/>
	<circle cy="666.25" cx="939.42" r="1.343"/>
	<circle cy="680.81" cx="961.32" r="1.343"/>
	<circle cy="554.08" cx="899.57" r="1.343"/>
	<circle cy="568.96" cx="876.32" r="1.343"/>
	<circle cy="583.52" cx="898.22" r="1.343"/>
	<circle cy="573.01" cx="889.28" r="1.343"/>
	<circle cy="587.9" cx="866.04" r="1.343"/>
	<circle cy="565.05" cx="933.09" r="1.343"/>
	<circle cy="579.94" cx="909.85" r="1.343"/>
	<circle cy="594.5" cx="931.75" r="1.343"/>
	<circle cy="680.08" cx="864.7" r="1.343"/>
	<circle cy="598.87" cx="899.56" r="1.343"/>
	<circle cy="613.43" cx="921.47" r="1.343"/>
	<circle cy="723.4" cx="822.44" r="1.343"/>
	<circle cy="448.43" cx="1001.1" r="1.343"/>
	<circle cy="463.31" cx="977.83" r="1.343"/>
	<circle cy="477.87" cx="999.73" r="1.343"/>
	<circle cy="467.36" cx="990.8" r="1.343"/>
	<circle cy="482.25" cx="967.55" r="1.343"/>
	<circle cy="496.81" cx="989.45" r="1.343"/>
	<circle cy="474.28" cx="1011.4" r="1.343"/>
	<circle cy="488.84" cx="1033.3" r="1.343"/>
	<circle cy="478.33" cx="1024.3" r="1.343"/>
	<circle cy="493.22" cx="1001.1" r="1.343"/>
	<circle cy="507.78" cx="1023" r="1.343"/>
	<circle cy="434.64" cx="1031.9" r="1.343"/>
	<circle cy="424.13" cx="1023" r="1.343"/>
	<circle cy="439.02" cx="999.73" r="1.343"/>
	<circle cy="567.86" cx="988.31" r="1.343"/>
	<circle cy="582.74" cx="965.06" r="1.343"/>
	<circle cy="597.3" cx="986.96" r="1.343"/>
	<circle cy="586.79" cx="978.03" r="1.343"/>
	<circle cy="601.68" cx="954.78" r="1.343"/>
	<circle cy="616.24" cx="976.68" r="1.343"/>
	<circle cy="578.83" cx="1021.8" r="1.343"/>
	<circle cy="593.71" cx="998.59" r="1.343"/>
	<circle cy="645.69" cx="985.62" r="1.343"/>
	<circle cy="612.65" cx="988.31" r="1.343"/>
	<circle cy="524.62" cx="1020.5" r="1.343"/>
	<circle cy="539.51" cx="997.25" r="1.343"/>
	<circle cy="514.85" cx="1001.1" r="1.343"/>
	<circle cy="558.44" cx="986.96" r="1.343"/>
	<circle cy="573" cx="1008.9" r="1.343"/>
	<circle cy="569.42" cx="1020.5" r="1.343"/>
	<circle cy="813.56" cx="692.09" r="1.343"/>
	<circle cy="832.49" cx="681.81" r="1.343"/>
	<circle cy="809.97" cx="703.72" r="1.343"/>
	<circle cy="824.53" cx="725.62" r="1.343"/>
	<circle cy="814.02" cx="716.68" r="1.343"/>
	<circle cy="828.9" cx="693.44" r="1.343"/>
	<circle cy="843.46" cx="715.34" r="1.343"/>
	<circle cy="805.81" cx="728.31" r="1.343"/>
	<circle cy="768.4" cx="773.46" r="1.343"/>
	<circle cy="783.29" cx="750.21" r="1.343"/>
	<circle cy="797.85" cx="772.12" r="1.343"/>
	<circle cy="787.34" cx="763.18" r="1.343"/>
	<circle cy="816.78" cx="761.84" r="1.343"/>
	<circle cy="781.57" cx="811.96" r="1.343"/>
	<circle cy="796.46" cx="788.72" r="1.343"/>
	<circle cy="811.02" cx="810.62" r="1.343"/>
	<circle cy="800.51" cx="801.68" r="1.343"/>
	<circle cy="815.39" cx="778.44" r="1.343"/>
	<circle cy="824.94" cx="781.05" r="1.343"/>
	<circle cy="795.58" cx="871.8" r="1.343"/>
	<circle cy="807.43" cx="822.25" r="1.343"/>
	<circle cy="821.99" cx="844.15" r="1.343"/>
	<circle cy="828.9" cx="822.44" r="1.343"/>
	<circle cy="826.37" cx="811.96" r="1.343"/>
	<circle cy="840.92" cx="833.87" r="1.343"/>
	<circle cy="725.17" cx="805.64" r="1.343"/>
	<circle cy="754.61" cx="804.3" r="1.343"/>
	<circle cy="744.1" cx="795.36" r="1.343"/>
	<circle cy="773.55" cx="794.02" r="1.343"/>
	<circle cy="729.08" cx="868.16" r="1.343"/>
	<circle cy="743.97" cx="844.91" r="1.343"/>
	<circle cy="758.53" cx="866.82" r="1.343"/>
	<circle cy="748.02" cx="857.88" r="1.343"/>
	<circle cy="762.9" cx="834.63" r="1.343"/>
	<circle cy="777.46" cx="856.54" r="1.343"/>
	<circle cy="740.06" cx="901.69" r="1.343"/>
	<circle cy="754.94" cx="878.44" r="1.343"/>
	<circle cy="769.5" cx="900.35" r="1.343"/>
	<circle cy="758.99" cx="891.41" r="1.343"/>
	<circle cy="773.88" cx="868.16" r="1.343"/>
	<circle cy="788.44" cx="890.06" r="1.343"/>
	<circle cy="753.22" cx="940.2" r="1.343"/>
	<circle cy="768.11" cx="916.95" r="1.343"/>
	<circle cy="807.9" cx="912.92" r="1.343"/>
	<circle cy="787.04" cx="906.67" r="1.343"/>
	<circle cy="801.6" cx="928.57" r="1.343"/>
	<circle cy="776.65" cx="940.2" r="1.343"/>
	<circle cy="798.02" cx="940.2" r="1.343"/>
	<circle cy="685.85" cx="900.34" r="1.343"/>
	<circle cy="700.73" cx="877.1" r="1.343"/>
	<circle cy="715.29" cx="899" r="1.343"/>
	<circle cy="704.78" cx="890.06" r="1.343"/>
	<circle cy="719.67" cx="866.82" r="1.343"/>
	<circle cy="734.23" cx="888.72" r="1.343"/>
	<circle cy="696.82" cx="933.87" r="1.343"/>
	<circle cy="711.71" cx="910.63" r="1.343"/>
	<circle cy="726.27" cx="932.53" r="1.343"/>
	<circle cy="715.76" cx="923.59" r="1.343"/>
	<circle cy="730.64" cx="900.34" r="1.343"/>
	<circle cy="745.2" cx="922.25" r="1.343"/>
	<circle cy="864.22" cx="835.58" r="1.343"/>
	<circle cy="868.27" cx="848.55" r="1.343"/>
	<circle cy="883.16" cx="825.3" r="1.343"/>
	<circle cy="897.72" cx="847.21" r="1.343"/>
	<circle cy="806.1" cx="891.02" r="1.343"/>
	<circle cy="820.99" cx="867.77" r="1.343"/>
	<circle cy="835.55" cx="889.67" r="1.343"/>
	<circle cy="825.04" cx="880.73" r="1.343"/>
	<circle cy="839.92" cx="857.49" r="1.343"/>
	<circle cy="838.82" cx="870.45" r="1.343"/>
	<circle cy="817.08" cx="924.54" r="1.343"/>
	<circle cy="831.96" cx="901.3" r="1.343"/>
	<circle cy="836.01" cx="914.26" r="1.343"/>
	<circle cy="869.62" cx="727.16" r="1.343"/>
	<circle cy="884.51" cx="703.91" r="1.343"/>
	<circle cy="899.07" cx="725.82" r="1.343"/>
	<circle cy="888.56" cx="716.88" r="1.343"/>
	<circle cy="883.97" cx="685.77" r="1.343"/>
	<circle cy="918" cx="715.54" r="1.343"/>
	<circle cy="880.59" cx="760.69" r="1.343"/>
	<circle cy="895.48" cx="737.44" r="1.343"/>
	<circle cy="910.04" cx="759.34" r="1.343"/>
	<circle cy="899.53" cx="750.41" r="1.343"/>
	<circle cy="914.42" cx="727.16" r="1.343"/>
	<circle cy="928.98" cx="749.06" r="1.343"/>
	<circle cy="893.76" cx="799.2" r="1.343"/>
	<circle cy="908.65" cx="775.95" r="1.343"/>
	<circle cy="923.21" cx="797.85" r="1.343"/>
	<circle cy="912.7" cx="788.91" r="1.343"/>
	<circle cy="927.58" cx="765.67" r="1.343"/>
	<circle cy="942.14" cx="787.57" r="1.343"/>
	<circle cy="904.74" cx="832.72" r="1.343"/>
	<circle cy="919.62" cx="809.48" r="1.343"/>
	<circle cy="938.56" cx="799.2" r="1.343"/>
	<circle cy="826.39" cx="759.35" r="1.343"/>
	<circle cy="841.28" cx="736.1" r="1.343"/>
	<circle cy="855.83" cx="758" r="1.343"/>
	<circle cy="845.32" cx="749.06" r="1.343"/>
	<circle cy="860.21" cx="725.82" r="1.343"/>
	<circle cy="874.77" cx="747.72" r="1.343"/>
	<circle cy="849.79" cx="797.85" r="1.343"/>
	<circle cy="868.64" cx="775.95" r="1.343"/>
	<circle cy="864.11" cx="809.48" r="1.343"/>
	<circle cy="856.3" cx="782.59" r="1.343"/>
	<circle cy="871.18" cx="759.34" r="1.343"/>
	<circle cy="885.74" cx="781.25" r="1.343"/>
	<circle cy="879.4" cx="608.63" r="1.343"/>
	<circle cy="894.28" cx="585.39" r="1.343"/>
	<circle cy="908.84" cx="607.29" r="1.343"/>
	<circle cy="898.33" cx="598.35" r="1.343"/>
	<circle cy="913.22" cx="575.1" r="1.343"/>
	<circle cy="927.78" cx="597.01" r="1.343"/>
	<circle cy="890.37" cx="642.16" r="1.343"/>
	<circle cy="905.26" cx="618.91" r="1.343"/>
	<circle cy="919.82" cx="640.82" r="1.343"/>
	<circle cy="909.3" cx="631.88" r="1.343"/>
	<circle cy="924.19" cx="608.63" r="1.343"/>
	<circle cy="938.75" cx="630.54" r="1.343"/>
	<circle cy="903.54" cx="680.67" r="1.343"/>
	<circle cy="918.43" cx="657.42" r="1.343"/>
	<circle cy="932.99" cx="679.32" r="1.343"/>
	<circle cy="922.48" cx="670.39" r="1.343"/>
	<circle cy="937.36" cx="647.14" r="1.343"/>
	<circle cy="951.92" cx="669.04" r="1.343"/>
	<circle cy="914.51" cx="714.2" r="1.343"/>
	<circle cy="929.4" cx="690.95" r="1.343"/>
	<circle cy="943.96" cx="712.85" r="1.343"/>
	<circle cy="933.45" cx="703.91" r="1.343"/>
	<circle cy="948.33" cx="680.67" r="1.343"/>
	<circle cy="962.89" cx="702.57" r="1.343"/>
	<circle cy="836.17" cx="640.82" r="1.343"/>
	<circle cy="865.61" cx="639.48" r="1.343"/>
	<circle cy="869.99" cx="607.29" r="1.343"/>
	<circle cy="884.54" cx="629.2" r="1.343"/>
	<circle cy="847.14" cx="674.35" r="1.343"/>
	<circle cy="862.34" cx="656.08" r="1.343"/>
	<circle cy="858.49" cx="693.63" r="1.343"/>
	<circle cy="879.04" cx="662.53" r="1.343"/>
	<circle cy="868.07" cx="627.85" r="1.343"/>
	<circle cy="895.52" cx="662.72" r="1.343"/>
	<circle cy="700.45" cx="992.53" r="1.343"/>
	<circle cy="715.34" cx="969.28" r="1.343"/>
	<circle cy="719.39" cx="982.25" r="1.343"/>
	<circle cy="705.6" cx="950.09" r="1.343"/>
	<circle cy="691.04" cx="991.18" r="1.343"/>
	<circle cy="705.6" cx="1013.1" r="1.343"/>
</g>
</svg>
